<?xml version="1.0" encoding="utf-8"?>
<!-- Generator: Adobe Illustrator 17.0.0, SVG Export Plug-In . SVG Version: 6.00 Build 0)  -->
<svg version="1.2" baseProfile="tiny" id="Layer_1" xmlns="http://www.w3.org/2000/svg" xmlns:xlink="http://www.w3.org/1999/xlink"
	 x="0px" y="0px" width="166.5px" height="45.646px" viewBox="0 0 166.5 45.646" xml:space="preserve">
<g>
	<path fill="#ED1C24" d="M15.771,0.109c0,8.518,0,17.05,0,25.582c-0.032,0.006-0.065,0.012-0.097,0.018
		C12.652,17.147,9.631,8.586,6.618,0.046C6.28,0.021,5.539,0.007,4.671,0.002C4.497,0.001,4.318,0,4.137,0c-0.182,0-0.366,0-0.552,0
		C3.376,0.001,3.167,0.002,2.96,0.003C1.508,0.013,0.165,0.044,0,0.087c0,15.178,0,30.356,0,45.544
		c2.371-0.33,4.709-0.656,7.083-0.987c0-8.242,0-16.454,0-24.666c0.034-0.007,0.068-0.014,0.102-0.021
		c0.69,1.961,1.331,3.938,1.998,5.907c0.666,1.966,1.326,3.933,1.988,5.9c0.666,1.981,1.33,3.963,1.996,5.944
		c0.665,1.975,1.333,3.949,2.005,5.941c2.568-0.346,5.108-0.481,7.597-0.926c0.099-0.447,0.088-42.339-0.002-42.671
		C22.004-0.035,16.123,0.003,15.771,0.109z"/>
	<path fill="#ED1C24" d="M157.733,22.092c-0.101-0.269-0.087-0.49,0.021-0.749c0.714-1.713,1.416-3.432,2.121-5.15
		c2.149-5.233,4.297-10.466,6.446-15.699c0.058-0.142,0.108-0.287,0.173-0.46c-2.575,0-5.09,0-7.593,0
		c-0.019,0.026-0.031,0.036-0.037,0.049c-1.605,3.891-3.209,7.783-4.814,11.674c-0.016,0.039-0.042,0.075-0.067,0.11
		c-0.007,0.01-0.024,0.014-0.037,0.016c-0.014,0.003-0.029,0.001-0.077,0.001c-1.517-3.941-3.038-7.892-4.56-11.847
		c-2.504,0-4.973,0-7.497,0c0.068,0.195,0.113,0.333,0.164,0.467c2.602,6.829,5.203,13.659,7.814,20.485
		c0.124,0.325,0.118,0.595-0.021,0.915c-1.705,3.913-3.398,7.832-5.093,11.749c-1.19,2.75-2.38,5.501-3.569,8.252
		c-0.06,0.138-0.108,0.282-0.175,0.458c2.546,0.299,5.021,0.589,7.511,0.881c1.696-4,3.387-7.989,5.078-11.977
		c0.15,0.131,0.213,0.256,0.263,0.386c0.352,0.914,0.702,1.828,1.053,2.743c1.224,3.194,2.451,6.386,3.668,9.583
		c0.104,0.273,0.234,0.41,0.548,0.46c1.992,0.316,3.978,0.665,5.968,0.997c0.471,0.079,0.946,0.134,1.48,0.208
		c-0.082-0.237-0.138-0.414-0.203-0.588C163.445,37.402,160.593,29.745,157.733,22.092z"/>
	<path fill="#ED1C24" d="M36.732,34.493c-0.105-0.575-0.081-10.288,0.023-10.64c0.189-0.016,0.39-0.042,0.592-0.048
		c0.95-0.029,1.901-0.065,2.851-0.075c1.799-0.018,3.598-0.019,5.398-0.029c0.155-0.001,0.31-0.014,0.479-0.023
		c0-2.364,0-4.683,0-7.062c-3.158-0.009-6.264,0.149-9.362,0.105c-0.088-0.672-0.059-9.246,0.037-9.615c1.358,0,2.729,0,4.101,0
		c1.375,0,2.75,0,4.125,0c1.369,0,2.738,0,4.097-0.001c0.092-0.733,0.059-6.752-0.031-7.061c-6.43,0-12.86,0-19.357,0
		c0,0.253,0,0.482,0,0.712c0,13.546,0,27.091,0,40.637c0,0.132-0.007,0.264,0.003,0.395c0.009,0.109,0.038,0.217,0.056,0.318
		c1.051,0.006,19.004-1.487,19.338-1.604c0.087-0.763,0.051-6.421-0.05-6.753C44.928,33.88,40.829,34.25,36.732,34.493z"/>
	<path fill="#ED1C24" d="M79.886,0.089c0,13.126,0,26.255,0,39.378c0.46,0.113,6.461,0.096,6.829-0.027c0-0.188,0-0.39,0-0.593
		c0-4.959,0-9.918,0.002-14.876c0-0.198,0.023-0.395,0.038-0.636c3.214,0,6.381,0,9.555,0c0-2.378,0-4.709,0-7.086
		c-3.199,0-6.366,0-9.522,0c-0.106-0.456-0.097-8.753,0.01-9.141c0.586,0,1.184,0,1.782,0c0.614,0,1.229,0,1.843,0
		c0.6,0,1.199,0,1.799,0c0.6,0,1.199,0,1.799,0c0.6,0,1.199,0,1.799,0c0.614,0,1.229,0.001,1.843,0
		c0.593-0.002,1.186,0.008,1.767-0.007c0.098-0.702,0.064-6.755-0.03-7.053C98.569-0.034,80.219,0.003,79.886,0.089z"/>
	<path fill="#ED1C24" d="M53.728,0.091c-0.089,0.822-0.049,6.686,0.057,7.024c2.371,0,4.752,0,7.211,0c0,10.997,0,21.931,0,32.894
		c2.348-0.028,4.649-0.056,6.988-0.084c0-1.135,0-2.229,0-3.323c0-1.082,0-2.165,0-3.247c0-1.097,0-2.194,0-3.291s0-2.194,0-3.291
		c0-1.082,0-2.165,0-3.247c0-1.097,0-2.194,0-3.291s0-2.194,0-3.291s0-2.194,0-3.291c0-1.083-0.006-2.165,0.002-3.247
		c0.008-1.089-0.036-2.179,0.031-3.313c2.444,0,4.836,0,7.221,0c0.091-0.711,0.058-6.735-0.033-7.04
		C74.354-0.038,54.045,0.002,53.728,0.091z"/>
	<path fill="#ED1C24" d="M110.904,29.958c0-1.112,0-2.224,0-3.335c0-1.097,0-2.194,0-3.291c0-1.112,0-2.224,0-3.335s0-2.224,0-3.335
		s0-2.224,0-3.335s0-2.224,0-3.335c0-1.097,0-2.194,0-3.291c0-1.112,0.002-2.224-0.001-3.335c-0.003-1.105,0.013-2.211-0.011-3.318
		c-2.349,0-4.64,0-6.954,0c0,13.329,0,26.633,0,39.985c6.313,0.148,12.594,0.535,18.898,0.937c0-2.347,0-4.638,0-7.02
		c-3.986-0.218-7.936-0.435-11.932-0.654C110.904,32.176,110.904,31.067,110.904,29.958z"/>
	<path fill="#ED1C24" d="M135.7,0.325c-0.008-0.096-0.039-0.189-0.058-0.274c-0.864-0.084-6.445-0.048-6.772,0.042
		c0,13.773,0,27.548,0,41.35c2.262,0.17,4.503,0.339,6.834,0.514c0-0.255,0-0.471,0-0.686c0-13.517,0-27.034,0-40.552
		C135.704,0.588,135.71,0.456,135.7,0.325z"/>
</g>
<g>
</g>
<g>
</g>
<g>
</g>
<g>
</g>
<g>
</g>
<g>
</g>
</svg>
